<svg width="539" height="150" viewBox="0 0 539 150" fill="none" xmlns="http://www.w3.org/2000/svg">
<path fill-rule="evenodd" clip-rule="evenodd" d="M97 66V72H0V0H97V6H103V66H97ZM85 12V42H91V12H85Z" fill="white"/>
<path d="M151 48V54H212V72H115V66H109V6H115V0H212V36H151V42H212V48H151Z" fill="white"/>
<path d="M6 150V144H0V84H6V78H73V120H79V78H103V150H79V126H73V150H6Z" fill="white"/>
<path fill-rule="evenodd" clip-rule="evenodd" d="M206 144V150H115V144H109V84H115V78H206V84H212V144H206ZM194 90V120H200V90H194Z" fill="white"/>
<path d="M315 150V144H321V78H297V120H291V126H285V132H279V126H285V120H291V78H224V84H218V144H224V150H315Z" fill="white"/>
<path d="M424 84V78H333V84H327V90V96V102V108H375V114H381V120H387V126H381V120H375V114H327V120V126V132V138V144H333V150H424V144H430V138V132V126V120V114V108H424V102H393V96H387V90H393V96H430V90V84H424Z" fill="white"/>
<path d="M478 126V132H539V150H442V144H436V84H442V78H539V114H478V120H539V126H478Z" fill="white"/>
<path d="M497 3H479V18H443V24H479V33H449V45H443V51H437V63H461V57H467V51H473V39H479V57H467V63H479V69H497V63H509V57H497V39H503V51H509V57H515V63H539V51H533V45H527V33H497V24H533V18H497V3Z" fill="#FF0000"/>
<path fill-rule="evenodd" clip-rule="evenodd" d="M334 9V3H429V69H405V63H351V69H327V9H334ZM405 9V33H351V9H405ZM351 39H405V57H351V39Z" fill="#FF0000"/>
<path d="M243 66V72H296V66H302V60H309V54H315V48H321V0H248V42H254V48H260V54H254V48H248V42H242V0H224V6H218V48H224V54H230V60H237V66H243Z" fill="white"/>
</svg>
